<svg width="168" height="57" viewBox="0 0 168 57" fill="none" xmlns="http://www.w3.org/2000/svg">
<g id="Mobile app store badge">
<path d="M0 22.9557C0 12.3962 0 7.11647 3.2804 3.83607C6.56081 0.555664 11.8405 0.555664 22.4 0.555664H145.6C156.159 0.555664 161.439 0.555664 164.72 3.83607C168 7.11647 168 12.3962 168 22.9557V34.1557C168 44.7151 168 49.9949 164.72 53.2753C161.439 56.5557 156.159 56.5557 145.6 56.5557H22.4C11.8405 56.5557 6.56081 56.5557 3.2804 53.2753C0 49.9949 0 44.7151 0 34.1557V22.9557Z" fill="#1A1A1A"/>
<g id="App Store">
<path d="M114.136 27.4372V30.6446H112.126V32.748H114.136V39.895C114.136 42.3354 115.24 43.3116 118.018 43.3116C118.506 43.3116 118.971 43.2535 119.377 43.1837V41.1036C119.029 41.1384 118.808 41.1617 118.425 41.1617C117.181 41.1617 116.635 40.5806 116.635 39.2558V32.748H119.377V30.6446H116.635V27.4372H114.136Z" fill="white"/>
<path d="M126.453 43.4859C130.148 43.4859 132.414 41.0106 132.414 36.9084C132.414 32.8293 130.137 30.3424 126.453 30.3424C122.757 30.3424 120.48 32.8293 120.48 36.9084C120.48 41.0106 122.746 43.4859 126.453 43.4859ZM126.453 41.2663C124.28 41.2663 123.059 39.6742 123.059 36.9084C123.059 34.1658 124.28 32.5621 126.453 32.5621C128.614 32.5621 129.846 34.1658 129.846 36.9084C129.846 39.6626 128.614 41.2663 126.453 41.2663Z" fill="white"/>
<path d="M134.353 43.2418H136.852V35.7695C136.852 33.9915 138.188 32.7945 140.083 32.7945C140.524 32.7945 141.268 32.8758 141.477 32.9456V30.4819C141.21 30.4122 140.733 30.3773 140.361 30.3773C138.711 30.3773 137.305 31.2837 136.945 32.5272H136.759V30.5865H134.353V43.2418Z" fill="white"/>
<path d="M147.681 32.4691C149.529 32.4691 150.737 33.759 150.795 35.7462H144.404C144.543 33.7707 145.833 32.4691 147.681 32.4691ZM150.784 39.8252C150.319 40.813 149.285 41.3592 147.774 41.3592C145.775 41.3592 144.485 39.9531 144.404 37.7334V37.594H153.34V36.7224C153.34 32.748 151.214 30.3424 147.692 30.3424C144.125 30.3424 141.859 32.9107 141.859 36.9548C141.859 40.999 144.078 43.4859 147.704 43.4859C150.598 43.4859 152.62 42.0914 153.189 39.8252H150.784Z" fill="white"/>
<path d="M97.7513 38.5684C97.944 41.676 100.534 43.6634 104.388 43.6634C108.507 43.6634 111.085 41.5796 111.085 38.2553C111.085 35.6415 109.616 34.1961 106.05 33.365L104.135 32.8953C101.871 32.3653 100.955 31.6546 100.955 30.414C100.955 28.8482 102.377 27.8243 104.509 27.8243C106.532 27.8243 107.929 28.8241 108.182 30.4261H110.808C110.651 27.4991 108.074 25.4395 104.545 25.4395C100.751 25.4395 98.2211 27.4991 98.2211 30.5947C98.2211 33.1482 99.6544 34.6659 102.798 35.4006L105.039 35.9426C107.339 36.4846 108.351 37.2796 108.351 38.6046C108.351 40.1463 106.761 41.2665 104.593 41.2665C102.268 41.2665 100.654 40.2186 100.425 38.5684H97.7513Z" fill="white"/>
<path d="M71.8691 30.3773C70.1491 30.3773 68.6616 31.2373 67.8946 32.6783H67.7087V30.5865H65.3031V47.4487H67.8017V41.3244H67.9992C68.6616 42.6608 70.091 43.451 71.8923 43.451C75.0881 43.451 77.1218 40.9293 77.1218 36.9084C77.1218 32.8875 75.0881 30.3773 71.8691 30.3773ZM71.1602 41.2082C69.0684 41.2082 67.7552 39.558 67.7552 36.92C67.7552 34.2704 69.0684 32.6202 71.1718 32.6202C73.2868 32.6202 74.5535 34.2355 74.5535 36.9084C74.5535 39.5928 73.2868 41.2082 71.1602 41.2082Z" fill="white"/>
<path d="M85.8646 30.3773C84.1447 30.3773 82.6572 31.2373 81.8902 32.6783H81.7042V30.5865H79.2987V47.4487H81.7972V41.3244H81.9948C82.6572 42.6608 84.0865 43.451 85.8878 43.451C89.0836 43.451 91.1173 40.9293 91.1173 36.9084C91.1173 32.8875 89.0836 30.3773 85.8646 30.3773ZM85.1557 41.2082C83.0639 41.2082 81.7507 39.558 81.7507 36.92C81.7507 34.2704 83.0639 32.6202 85.1673 32.6202C87.2823 32.6202 88.549 34.2355 88.549 36.9084C88.549 39.5928 87.2823 41.2082 85.1557 41.2082Z" fill="white"/>
<path d="M60.8203 43.2418H63.687L57.4116 25.861H54.5088L48.2334 43.2418H51.0037L52.6057 38.6286H59.2304L60.8203 43.2418ZM55.8217 29.0168H56.0265L58.5439 36.3642H53.2923L55.8217 29.0168Z" fill="white"/>
</g>
<g id="Download on the">
<path d="M49.9131 12.7504V21.1351H52.9404C55.4389 21.1351 56.8857 19.5953 56.8857 16.9166C56.8857 14.2786 55.4273 12.7504 52.9404 12.7504H49.9131ZM51.2146 13.9358H52.7951C54.5325 13.9358 55.5609 15.0398 55.5609 16.934C55.5609 18.8573 54.5499 19.9497 52.7951 19.9497H51.2146V13.9358Z" fill="white"/>
<path d="M61.3169 21.2571C63.1646 21.2571 64.2977 20.0194 64.2977 17.9683C64.2977 15.9288 63.1588 14.6854 61.3169 14.6854C59.4691 14.6854 58.3302 15.9288 58.3302 17.9683C58.3302 20.0194 59.4633 21.2571 61.3169 21.2571ZM61.3169 20.1473C60.2303 20.1473 59.6202 19.3512 59.6202 17.9683C59.6202 16.597 60.2303 15.7952 61.3169 15.7952C62.3976 15.7952 63.0135 16.597 63.0135 17.9683C63.0135 19.3454 62.3976 20.1473 61.3169 20.1473Z" fill="white"/>
<path d="M73.9467 14.8074H72.6974L71.5702 19.6359H71.4714L70.1698 14.8074H68.9728L67.6713 19.6359H67.5783L66.4453 14.8074H65.1786L66.9217 21.1351H68.2058L69.5074 16.475H69.6062L70.9136 21.1351H72.2093L73.9467 14.8074Z" fill="white"/>
<path d="M75.3854 21.1351H76.6346V17.4337C76.6346 16.4459 77.2215 15.83 78.1454 15.83C79.0692 15.83 79.5108 16.3355 79.5108 17.3524V21.1351H80.7601V17.0386C80.7601 15.5337 79.9815 14.6854 78.5695 14.6854C77.6166 14.6854 76.9891 15.1095 76.6811 15.8126H76.5881V14.8074H75.3854V21.1351Z" fill="white"/>
<path d="M82.7276 21.1351H83.9768V12.3379H82.7276V21.1351Z" fill="white"/>
<path d="M88.6752 21.2571C90.523 21.2571 91.6561 20.0194 91.6561 17.9683C91.6561 15.9288 90.5172 14.6854 88.6752 14.6854C86.8275 14.6854 85.6886 15.9288 85.6886 17.9683C85.6886 20.0194 86.8217 21.2571 88.6752 21.2571ZM88.6752 20.1473C87.5887 20.1473 86.9786 19.3512 86.9786 17.9683C86.9786 16.597 87.5887 15.7952 88.6752 15.7952C89.756 15.7952 90.3719 16.597 90.3719 17.9683C90.3719 19.3454 89.756 20.1473 88.6752 20.1473Z" fill="white"/>
<path d="M95.3783 20.1879C94.6985 20.1879 94.2046 19.8567 94.2046 19.2873C94.2046 18.7295 94.5997 18.4332 95.4713 18.375L97.0169 18.2763V18.805C97.0169 19.5895 96.3196 20.1879 95.3783 20.1879ZM95.0587 21.2396C95.8896 21.2396 96.5811 20.8794 96.9588 20.246H97.0575V21.1351H98.2603V16.812C98.2603 15.4756 97.3655 14.6854 95.7792 14.6854C94.344 14.6854 93.3214 15.3826 93.1935 16.4692H94.4021C94.5416 16.0218 95.0238 15.7661 95.7211 15.7661C96.5753 15.7661 97.0169 16.1438 97.0169 16.812V17.3582L95.3027 17.457C93.7978 17.55 92.9495 18.2065 92.9495 19.3454C92.9495 20.5017 93.8385 21.2396 95.0587 21.2396Z" fill="white"/>
<path d="M102.5 21.2396C103.371 21.2396 104.109 20.8271 104.487 20.1356H104.586V21.1351H105.783V12.3379H104.533V15.8126H104.44C104.098 15.1153 103.365 14.7028 102.5 14.7028C100.902 14.7028 99.8733 15.9695 99.8733 17.9683C99.8733 19.9729 100.89 21.2396 102.5 21.2396ZM102.854 15.8242C103.9 15.8242 104.557 16.6551 104.557 17.9741C104.557 19.2989 103.906 20.1182 102.854 20.1182C101.797 20.1182 101.163 19.3105 101.163 17.9683C101.163 16.6377 101.802 15.8242 102.854 15.8242Z" fill="white"/>
<path d="M113.884 21.2571C115.731 21.2571 116.865 20.0194 116.865 17.9683C116.865 15.9288 115.726 14.6854 113.884 14.6854C112.036 14.6854 110.897 15.9288 110.897 17.9683C110.897 20.0194 112.03 21.2571 113.884 21.2571ZM113.884 20.1473C112.797 20.1473 112.187 19.3512 112.187 17.9683C112.187 16.597 112.797 15.7952 113.884 15.7952C114.964 15.7952 115.58 16.597 115.58 17.9683C115.58 19.3454 114.964 20.1473 113.884 20.1473Z" fill="white"/>
<path d="M118.518 21.1351H119.767V17.4337C119.767 16.4459 120.354 15.83 121.278 15.83C122.202 15.83 122.644 16.3355 122.644 17.3524V21.1351H123.893V17.0386C123.893 15.5337 123.114 14.6854 121.702 14.6854C120.749 14.6854 120.122 15.1095 119.814 15.8126H119.721V14.8074H118.518V21.1351Z" fill="white"/>
<path d="M129.647 13.2327V14.8364H128.641V15.8881H129.647V19.4616C129.647 20.6818 130.199 21.1699 131.587 21.1699C131.831 21.1699 132.064 21.1409 132.267 21.106V20.0659C132.093 20.0833 131.982 20.095 131.791 20.095C131.169 20.095 130.896 19.8044 130.896 19.142V15.8881H132.267V14.8364H130.896V13.2327H129.647Z" fill="white"/>
<path d="M133.944 21.1351H135.193V17.4396C135.193 16.4808 135.763 15.8358 136.785 15.8358C137.669 15.8358 138.139 16.3472 138.139 17.3582V21.1351H139.389V17.0502C139.389 15.5453 138.558 14.6912 137.21 14.6912C136.257 14.6912 135.588 15.1153 135.28 15.8242H135.182V12.3379H133.944V21.1351Z" fill="white"/>
<path d="M143.895 15.7487C144.819 15.7487 145.423 16.3937 145.452 17.3873H142.257C142.326 16.3995 142.971 15.7487 143.895 15.7487ZM145.447 19.4268C145.214 19.9207 144.697 20.1937 143.942 20.1937C142.942 20.1937 142.297 19.4907 142.257 18.3809V18.3111H146.725V17.8753C146.725 15.8881 145.662 14.6854 143.901 14.6854C142.117 14.6854 140.984 15.9695 140.984 17.9916C140.984 20.0136 142.094 21.2571 143.907 21.2571C145.354 21.2571 146.365 20.5598 146.649 19.4268H145.447Z" fill="white"/>
</g>
<g id="Apple logo">
<path d="M34.6772 28.9771C34.7075 26.6237 35.9714 24.3969 37.9764 23.1643C36.7115 21.3578 34.5929 20.2125 32.3887 20.1435C30.0378 19.8968 27.7587 21.5503 26.5607 21.5503C25.3395 21.5503 23.495 20.168 21.5088 20.2089C18.9198 20.2925 16.5063 21.7645 15.2467 24.0279C12.5391 28.7157 14.5587 35.6052 17.1524 39.3944C18.45 41.2499 19.9666 43.3225 21.951 43.249C23.8929 43.1685 24.6182 42.0108 26.9622 42.0108C29.2845 42.0108 29.9649 43.249 31.9896 43.2023C34.0733 43.1685 35.3862 41.3386 36.6383 39.4655C37.5707 38.1434 38.2881 36.6822 38.7641 35.136C36.3153 34.1003 34.68 31.6359 34.6772 28.9771Z" fill="white"/>
<path d="M30.8528 17.6515C31.989 16.2876 32.5487 14.5346 32.4132 12.7646C30.6774 12.947 29.074 13.7765 27.9226 15.0881C26.7966 16.3696 26.2106 18.0918 26.3214 19.794C28.0578 19.8119 29.7648 19.0048 30.8528 17.6515Z" fill="white"/>
</g>
</g>
</svg>
