<svg width="189" height="57" viewBox="0 0 189 57" fill="none" xmlns="http://www.w3.org/2000/svg">
<g id="Mobile app store badge">
<path d="M0 22.9557C0 12.3962 0 7.11647 3.2804 3.83607C6.56081 0.555664 11.8405 0.555664 22.4 0.555664H166.6C177.159 0.555664 182.439 0.555664 185.72 3.83607C189 7.11647 189 12.3962 189 22.9557V34.1557C189 44.7151 189 49.9949 185.72 53.2753C182.439 56.5557 177.159 56.5557 166.6 56.5557H22.4C11.8405 56.5557 6.56081 56.5557 3.2804 53.2753C0 49.9949 0 44.7151 0 34.1557V22.9557Z" fill="#1A1A1A"/>
<path id="Google Play" d="M95.3906 31.0065C92.0978 31.0065 89.414 33.5111 89.414 36.9607C89.414 40.3893 92.0978 42.9149 95.3906 42.9149C98.6848 42.9149 101.369 40.3893 101.369 36.9607C101.367 33.5111 98.6834 31.0065 95.3906 31.0065ZM95.3906 40.5713C93.586 40.5713 92.0306 39.0831 92.0306 36.9621C92.0306 34.8187 93.5874 33.3529 95.3906 33.3529C97.1952 33.3529 98.7506 34.8187 98.7506 36.9621C98.7506 39.0817 97.1952 40.5713 95.3906 40.5713ZM82.351 31.0065C79.0582 31.0065 76.3744 33.5111 76.3744 36.9607C76.3744 40.3893 79.0582 42.9149 82.351 42.9149C85.6452 42.9149 88.329 40.3893 88.329 36.9607C88.329 33.5111 85.6452 31.0065 82.351 31.0065ZM82.351 40.5713C80.5464 40.5713 78.991 39.0831 78.991 36.9621C78.991 34.8187 80.5478 33.3529 82.351 33.3529C84.1556 33.3529 85.711 34.8187 85.711 36.9621C85.7124 39.0817 84.1556 40.5713 82.351 40.5713ZM66.8418 32.8349V35.3605H72.887C72.7064 36.7815 72.2332 37.8189 71.5108 38.5399C70.6316 39.4191 69.2554 40.3893 66.8418 40.3893C63.1206 40.3893 60.2114 37.3891 60.2114 33.6679C60.2114 29.9467 63.1206 26.9465 66.8418 26.9465C68.8494 26.9465 70.3152 27.7361 71.3974 28.7511L73.1796 26.9689C71.6676 25.5255 69.6614 24.4209 66.8418 24.4209C61.7444 24.4209 57.459 28.5705 57.459 33.6679C57.459 38.7653 61.7444 42.9149 66.8418 42.9149C69.5928 42.9149 71.669 42.0119 73.2916 40.3207C74.9604 38.6519 75.4798 36.3055 75.4798 34.4113C75.4798 33.8261 75.435 33.2843 75.344 32.8335H66.8418V32.8349ZM130.273 34.7963C129.777 33.4663 128.265 31.0065 125.176 31.0065C122.108 31.0065 119.559 33.4201 119.559 36.9607C119.559 40.2983 122.086 42.9149 125.468 42.9149C128.197 42.9149 129.776 41.2461 130.431 40.2759L128.401 38.9221C127.725 39.9147 126.8 40.5685 125.468 40.5685C124.138 40.5685 123.19 39.9595 122.581 38.7639L130.543 35.4711L130.273 34.7963ZM122.153 36.7815C122.086 34.4799 123.935 33.3081 125.267 33.3081C126.304 33.3081 127.183 33.8275 127.477 34.5709L122.153 36.7815ZM115.681 42.5551H118.296V25.0537H115.681V42.5551ZM111.394 32.3379H111.304C110.718 31.6379 109.589 31.0065 108.17 31.0065C105.192 31.0065 102.463 33.6231 102.463 36.9845C102.463 40.3221 105.192 42.9163 108.17 42.9163C109.591 42.9163 110.718 42.2849 111.304 41.5639H111.394V42.4207C111.394 44.6985 110.176 45.9165 108.215 45.9165C106.613 45.9165 105.62 44.7671 105.214 43.7969L102.937 44.7447C103.59 46.3225 105.326 48.2629 108.215 48.2629C111.282 48.2629 113.876 46.4583 113.876 42.0595V31.3691H111.395V32.3379H111.394ZM108.395 40.5713C106.591 40.5713 105.08 39.0593 105.08 36.9845C105.08 34.8859 106.591 33.3529 108.395 33.3529C110.176 33.3529 111.575 34.8859 111.575 36.9845C111.575 39.0593 110.176 40.5713 108.395 40.5713ZM142.529 25.0537H136.269V42.5551H138.88V35.9247H142.527C145.422 35.9247 148.27 33.8289 148.27 30.4899C148.27 27.1509 145.424 25.0537 142.529 25.0537ZM142.596 33.4887H138.88V27.4897H142.596C144.549 27.4897 145.658 29.1067 145.658 30.4899C145.658 31.8451 144.549 33.4887 142.596 33.4887ZM158.741 30.9757C156.849 30.9757 154.891 31.8087 154.08 33.6553L156.398 34.6227C156.894 33.6553 157.818 33.3389 158.785 33.3389C160.136 33.3389 161.51 34.1495 161.532 35.5901V35.7707C161.059 35.5005 160.045 35.0959 158.808 35.0959C156.309 35.0959 153.764 36.4693 153.764 39.0355C153.764 41.3777 155.813 42.8855 158.109 42.8855C159.865 42.8855 160.834 42.0973 161.441 41.1733H161.531V42.5243H164.054V35.8141C164.055 32.7089 161.734 30.9757 158.741 30.9757ZM158.424 40.5671C157.57 40.5671 156.376 40.1387 156.376 39.0803C156.376 37.7293 157.863 37.2113 159.147 37.2113C160.293 37.2113 160.835 37.4591 161.532 37.7965C161.329 39.4191 159.933 40.5671 158.424 40.5671ZM173.24 31.3579L170.246 38.9459H170.156L167.048 31.3579H164.234L168.895 41.9629L166.238 47.8625H168.962L176.145 31.3579H173.24ZM149.712 42.5551H152.323V25.0537H149.712V42.5551Z" fill="white"/>
<g id="Get it on">
<path d="M66.385 14.8961C66.385 16.0693 66.0378 17.0031 65.342 17.7003C64.5524 18.5291 63.522 18.9435 62.2564 18.9435C61.044 18.9435 60.0122 18.5235 59.1652 17.6835C58.3168 16.8421 57.8926 15.8005 57.8926 14.5573C57.8926 13.3127 58.3168 12.2711 59.1652 11.4311C60.0122 10.5897 61.044 10.1697 62.2564 10.1697C62.8584 10.1697 63.4338 10.2873 63.9798 10.5211C64.5272 10.7563 64.9654 11.0685 65.293 11.4591L64.5552 12.1983C63.9994 11.5333 63.2336 11.2015 62.255 11.2015C61.3702 11.2015 60.6058 11.5123 59.9604 12.1339C59.315 12.7555 58.993 13.5633 58.993 14.5559C58.993 15.5485 59.315 16.3563 59.9604 16.9779C60.6058 17.5995 61.3702 17.9103 62.255 17.9103C63.193 17.9103 63.9756 17.5981 64.6014 16.9723C65.0074 16.5649 65.2426 15.9979 65.3056 15.2713H62.255V14.2619H66.3248C66.3668 14.4817 66.385 14.6931 66.385 14.8961Z" fill="white"/>
<path d="M72.8391 11.3878H69.0143V14.0506H72.4639V15.06H69.0143V17.7228H72.8391V18.756H67.9349V10.356H72.8391V11.3878Z" fill="white"/>
<path d="M77.3903 18.756H76.311V11.3878H73.9646V10.356H79.7368V11.3878H77.3903V18.756Z" fill="white"/>
<path d="M83.9129 18.756V10.356H84.9923V18.756H83.9129Z" fill="white"/>
<path d="M89.7791 18.756H88.6997V11.3878H86.3533V10.356H92.1255V11.3878H89.7791V18.756Z" fill="white"/>
<path d="M103.052 17.671C102.226 18.5194 101.2 18.9436 99.9722 18.9436C98.7444 18.9436 97.7182 18.5194 96.8936 17.671C96.0676 16.8226 95.656 15.7838 95.656 14.556C95.656 13.3282 96.0676 12.2894 96.8936 11.441C97.7182 10.5926 98.7444 10.167 99.9722 10.167C101.193 10.167 102.218 10.594 103.047 11.4466C103.875 12.2992 104.29 13.3352 104.29 14.556C104.29 15.7838 103.877 16.8226 103.052 17.671ZM97.6902 16.9668C98.3118 17.5968 99.072 17.9104 99.9722 17.9104C100.872 17.9104 101.634 17.5954 102.254 16.9668C102.876 16.3368 103.188 15.5332 103.188 14.556C103.188 13.5788 102.876 12.7752 102.254 12.1452C101.634 11.5152 100.872 11.2016 99.9722 11.2016C99.072 11.2016 98.3118 11.5166 97.6902 12.1452C97.07 12.7752 96.7578 13.5788 96.7578 14.556C96.7578 15.5332 97.07 16.3368 97.6902 16.9668Z" fill="white"/>
<path d="M105.805 18.756V10.356H107.118L111.2 16.8898H111.246L111.2 15.2714V10.356H112.28V18.756H111.153L106.881 11.9044H106.835L106.881 13.5228V18.756H105.805Z" fill="white"/>
<path d="M66.385 14.8961C66.385 16.0693 66.0378 17.0031 65.342 17.7003C64.5524 18.5291 63.522 18.9435 62.2564 18.9435C61.044 18.9435 60.0122 18.5235 59.1652 17.6835C58.3168 16.8421 57.8926 15.8005 57.8926 14.5573C57.8926 13.3127 58.3168 12.2711 59.1652 11.4311C60.0122 10.5897 61.044 10.1697 62.2564 10.1697C62.8584 10.1697 63.4338 10.2873 63.9798 10.5211C64.5272 10.7563 64.9654 11.0685 65.293 11.4591L64.5552 12.1983C63.9994 11.5333 63.2336 11.2015 62.255 11.2015C61.3702 11.2015 60.6058 11.5123 59.9604 12.1339C59.315 12.7555 58.993 13.5633 58.993 14.5559C58.993 15.5485 59.315 16.3563 59.9604 16.9779C60.6058 17.5995 61.3702 17.9103 62.255 17.9103C63.193 17.9103 63.9756 17.5981 64.6014 16.9723C65.0074 16.5649 65.2426 15.9979 65.3056 15.2713H62.255V14.2619H66.3248C66.3668 14.4817 66.385 14.6931 66.385 14.8961Z" stroke="white" stroke-width="0.28" stroke-miterlimit="10"/>
<path d="M72.8391 11.3878H69.0143V14.0506H72.4639V15.06H69.0143V17.7228H72.8391V18.756H67.9349V10.356H72.8391V11.3878Z" stroke="white" stroke-width="0.28" stroke-miterlimit="10"/>
<path d="M77.3903 18.756H76.311V11.3878H73.9646V10.356H79.7368V11.3878H77.3903V18.756Z" stroke="white" stroke-width="0.28" stroke-miterlimit="10"/>
<path d="M83.9129 18.756V10.356H84.9923V18.756H83.9129Z" stroke="white" stroke-width="0.28" stroke-miterlimit="10"/>
<path d="M89.7791 18.756H88.6997V11.3878H86.3533V10.356H92.1255V11.3878H89.7791V18.756Z" stroke="white" stroke-width="0.28" stroke-miterlimit="10"/>
<path d="M103.052 17.671C102.226 18.5194 101.2 18.9436 99.9722 18.9436C98.7444 18.9436 97.7182 18.5194 96.8936 17.671C96.0676 16.8226 95.656 15.7838 95.656 14.556C95.656 13.3282 96.0676 12.2894 96.8936 11.441C97.7182 10.5926 98.7444 10.167 99.9722 10.167C101.193 10.167 102.218 10.594 103.047 11.4466C103.875 12.2992 104.29 13.3352 104.29 14.556C104.29 15.7838 103.877 16.8226 103.052 17.671ZM97.6902 16.9668C98.3118 17.5968 99.072 17.9104 99.9722 17.9104C100.872 17.9104 101.634 17.5954 102.254 16.9668C102.876 16.3368 103.188 15.5332 103.188 14.556C103.188 13.5788 102.876 12.7752 102.254 12.1452C101.634 11.5152 100.872 11.2016 99.9722 11.2016C99.072 11.2016 98.3118 11.5166 97.6902 12.1452C97.07 12.7752 96.7578 13.5788 96.7578 14.556C96.7578 15.5332 97.07 16.3368 97.6902 16.9668Z" stroke="white" stroke-width="0.28" stroke-miterlimit="10"/>
<path d="M105.805 18.756V10.356H107.118L111.2 16.8898H111.246L111.2 15.2714V10.356H112.28V18.756H111.153L106.881 11.9044H106.835L106.881 13.5228V18.756H105.805Z" stroke="white" stroke-width="0.28" stroke-miterlimit="10"/>
</g>
<g id="Google Play logo">
<path id="Subtract" fill-rule="evenodd" clip-rule="evenodd" d="M14.2176 11.7086C14.0523 12.083 13.9609 12.5419 13.9609 13.0756V44.038C13.9609 44.5732 14.0525 45.0322 14.2181 45.4066L31.0657 28.5566L14.2176 11.7086ZM15.1914 46.4133C15.8158 46.6803 16.6302 46.5955 17.5183 46.0918L37.3382 34.8292L32.0557 29.5466L15.1914 46.4133ZM38.6017 34.1127L44.8197 30.5798C46.7755 29.4668 46.7755 27.6482 44.8197 26.5366L38.5993 23.002L33.0455 28.5566L38.6017 34.1127ZM37.3368 22.2846L17.5183 11.0232C16.63 10.5184 15.8153 10.4342 15.1908 10.7018L32.0556 27.5666L37.3368 22.2846Z" fill="white"/>
</g>
</g>
</svg>
